<svg width="200" height="200" viewBox="0 0 200 200" fill="none" xmlns="http://www.w3.org/2000/svg">
  <rect width="200" height="200" rx="36" fill="#FBF8F1"/>
  <circle cx="100" cy="100" r="68" fill="#FFF2D8" stroke="#C9972E" stroke-width="4"/>
  <path d="M68 122C68 103 82 88 100 88C118 88 132 103 132 122V126H68V122Z" fill="#E9BF71" stroke="#8B6A1D" stroke-width="4"/>
  <path d="M76 88C76 74 86 64 100 64C114 64 124 74 124 88" fill="#FFF8E7"/>
  <path d="M76 88C76 74 86 64 100 64C114 64 124 74 124 88" stroke="#8B6A1D" stroke-width="4"/>
  <circle cx="88" cy="79" r="4" fill="#C9972E"/>
  <circle cx="100" cy="74" r="4" fill="#C9972E"/>
  <circle cx="112" cy="80" r="4" fill="#C9972E"/>
  <path d="M84 126V142" stroke="#8B6A1D" stroke-width="4" stroke-linecap="round"/>
  <path d="M100 126V142" stroke="#8B6A1D" stroke-width="4" stroke-linecap="round"/>
  <path d="M116 126V142" stroke="#8B6A1D" stroke-width="4" stroke-linecap="round"/>
</svg>
