<?xml version="1.0" encoding="UTF-8"?><svg id="Camada_1" xmlns="http://www.w3.org/2000/svg" viewBox="0 0 197.85 50.17"><defs><style>.cls-1{fill:#fac51c;}.cls-2{fill:#0f406d;}.cls-3{fill:#fff;}.cls-4{fill:#15426e;}</style></defs><path class="cls-4" d="M85.33,18.88v3.85l.03.76c.03.35.11.6.24.76s.36.25.67.3l.78.07v.26h-7.31v-.26h.47c.22-.03.44-.06.64-.09.2-.03.36-.11.48-.25.12-.14.19-.38.22-.73l.03-.76v-7.79l-.03-.76c-.03-.35-.11-.6-.23-.74-.12-.14-.29-.23-.52-.26-.22-.03-.42-.05-.58-.06s-.31-.01-.46-.02v-.26l6.8-.02c.94,0,1.71.04,2.3.13.59.09,1.07.26,1.44.53.37.26.66.59.88.98.22.39.33.84.33,1.36,0,.38-.06.77-.19,1.15-.13.38-.32.71-.59.99s-.59.49-.98.64c-.39.15-1.01.23-1.86.23v.12c.52.12.95.24,1.3.35.35.11.67.27.95.48.28.21.54.52.77.93s.41.86.56,1.35.27.84.38,1.04c.11.2.27.31.47.31.26,0,.44-.18.53-.55.09-.37.13-.79.13-1.26h.24c0,.54-.03.96-.09,1.28-.06.32-.21.65-.46.99-.24.35-.59.62-1.04.84-.45.21-.94.32-1.47.32-.82,0-1.48-.26-1.97-.77-.49-.51-.8-1.18-.91-2.01-.12-.83-.21-1.53-.28-2.1-.11-.64-.26-1.01-.44-1.11-.18-.1-.38-.16-.59-.17-.21-.01-.43-.02-.64-.02ZM86.55,18.54c.39-.07.68-.37.88-.9.2-.54.3-1.13.3-1.79,0-.54-.1-1.07-.3-1.59-.2-.52-.45-.82-.73-.91-.28-.09-.54-.14-.76-.15-.22-.01-.42-.02-.59-.03v5.42h.52c.28,0,.52-.02.7-.05Z"/><path class="cls-4" d="M99.21,24.54c.43-.01.86-.02,1.31-.03.45,0,.92-.04,1.42-.11.5-.07,1.11-.61,1.84-1.63s1.27-2.06,1.61-3.13h.24v5.23h-11.96v-.26c.13,0,.28,0,.46-.02.17-.02.37-.04.59-.07.22-.03.39-.11.5-.25.12-.14.19-.38.22-.73l.03-.76v-7.79l-.03-.76c-.03-.35-.11-.6-.23-.74-.12-.14-.29-.23-.51-.26-.22-.03-.42-.05-.59-.06-.18,0-.34-.01-.48-.02v-.26h11.71v4.86h-.24c-.52-1.23-1.15-2.26-1.89-3.1-.74-.84-1.36-1.28-1.86-1.34-.5-.05-.93-.09-1.27-.1-.35-.01-.57-.02-.69-.02h-.14l-.03,5.39.64-.03c.59-.07,1.03-.36,1.33-.9.3-.53.45-1.16.45-1.88h.29v5.98h-.29c0-.73-.15-1.37-.45-1.92-.3-.55-.74-.85-1.33-.92l-.64-.03v5.65Z"/><path class="cls-4" d="M108.92,21.12l-.47,1.71c-.1.39-.15.71-.15.94,0,.25.06.43.17.53s.27.17.45.21c.18.04.36.06.53.07.17.01.34.02.5.03v.26h-4.31v-.26l.9-.07c.34-.04.59-.13.77-.27.17-.14.3-.31.39-.52s.18-.45.29-.74c.11-.28.2-.54.27-.77l2.91-9.4h1.67l3.21,9.4.47,1.28c.14.34.29.58.43.73.15.15.35.24.62.29l.62.07v.26h-7.23v-.26c.12,0,.23,0,.33,0,.1,0,.27-.03.53-.07.25-.04.44-.1.55-.17s.17-.22.17-.45-.07-.59-.21-1.04l-.55-1.74h-2.86ZM111.66,20.77l-1.34-4.04-1.29,4.04h2.63Z"/><path class="cls-4" d="M125.12,24.49c.61,0,1.21-.3,1.82-.9.6-.6,1.14-1.3,1.6-2.09.46-.79.88-1.62,1.26-2.5h.24v5.87h-11.9v-.26c.08,0,.2,0,.34,0,.15,0,.37-.03.67-.07.3-.04.51-.13.65-.27.13-.14.21-.38.24-.72l.03-.76v-7.81l-.03-.76c-.03-.35-.1-.59-.21-.73-.11-.14-.27-.22-.49-.25-.22-.03-.42-.05-.58-.06s-.31-.01-.44-.02v-.26h7.37v.26l-1,.05c-.3.03-.51.11-.62.25-.11.13-.18.38-.21.74l-.03.76v9.6l1.31-.05Z"/><path class="cls-4" d="M138.13,24.86h-7.43v-.26h.47c.21-.03.42-.06.62-.09.2-.03.36-.11.48-.25.12-.14.19-.38.22-.73l.03-.76v-7.79l-.03-.76c-.03-.35-.11-.6-.23-.74-.12-.14-.29-.23-.51-.26-.22-.03-.42-.05-.59-.06-.18,0-.34-.01-.48-.02v-.26l7.11-.02c1.65,0,2.75.2,3.3.59.54.39.92.82,1.13,1.27.21.45.32.95.32,1.47,0,.49-.07.96-.21,1.41-.14.45-.36.82-.65,1.11s-.66.51-1.1.65c-.44.14-1,.21-1.69.21s-1.19,0-1.6,0-.75.01-1.02.02v3.16l.03.76c.03.35.1.59.22.73.12.14.29.22.51.25.22.03.44.05.65.06.21,0,.36.01.44.02v.26ZM138.74,16.17c0-.62-.08-1.23-.23-1.82-.15-.59-.38-.93-.69-1.03-.31-.09-.61-.14-.9-.15-.29,0-.5,0-.65,0v6.15c.2-.01.41-.02.62-.03.21-.01.49-.05.85-.12.35-.07.6-.4.76-.99.16-.59.24-1.25.24-2Z"/><path class="cls-4" d="M145.15,21.12l-.47,1.71c-.1.39-.15.71-.15.94,0,.25.06.43.17.53s.27.17.45.21c.18.04.36.06.53.07.17.01.34.02.5.03v.26h-4.31v-.26l.9-.07c.34-.04.59-.13.77-.27.17-.14.3-.31.39-.52s.18-.45.29-.74c.11-.28.2-.54.27-.77l2.91-9.4h1.67l3.21,9.4.47,1.28c.14.34.29.58.43.73.15.15.35.24.62.29l.62.07v.26h-7.23v-.26c.12,0,.23,0,.33,0,.1,0,.27-.03.53-.07.25-.04.44-.1.55-.17s.17-.22.17-.45-.07-.59-.21-1.04l-.55-1.74h-2.86ZM147.89,20.77l-1.34-4.04-1.29,4.04h2.63Z"/><path class="cls-4" d="M167.72,13.15c-.13.01-.28.02-.43.03-.16.01-.38.04-.66.09-.28.05-.5.18-.65.38s-.24.48-.27.83l-.03.79v9.6h-1.86l-7.23-9.99h-.06v7.67l.03.79c.03.36.11.63.25.81s.34.29.62.34c.28.05.52.08.72.09.2.01.33.02.4.03v.26h-4.4v-.26c.13-.01.28-.02.44-.03s.45-.05.87-.12c.41-.07.65-.44.71-1.11l.03-.79v-7.48l-.03-.76c-.13-.23-.29-.44-.48-.64-.18-.2-.39-.33-.61-.41-.22-.08-.43-.11-.64-.11h-.46v-.26h5.82l5.47,7.56h.06v-5.24l-.03-.79c-.03-.35-.11-.62-.25-.8-.14-.18-.34-.3-.62-.34-.27-.05-.49-.08-.66-.09-.17-.01-.32-.02-.46-.03v-.26h4.38v.26Z"/><path class="cls-4" d="M85.81,37.42v3.85l.03.76c.03.35.11.6.24.76s.36.25.67.3l.78.07v.26h-7.31v-.26h.47c.22-.03.44-.06.64-.09.2-.03.36-.11.48-.25.12-.14.19-.38.22-.73l.03-.76v-7.79l-.03-.76c-.03-.35-.11-.6-.23-.74-.12-.14-.29-.23-.52-.26-.22-.03-.42-.05-.58-.06s-.31-.01-.46-.02v-.26l6.8-.02c.94,0,1.71.04,2.3.13.59.09,1.07.26,1.44.53.37.26.66.59.88.98.22.39.33.84.33,1.36,0,.38-.06.77-.19,1.15-.13.38-.32.71-.59.99s-.59.49-.98.64c-.39.15-1.01.23-1.86.23v.12c.52.12.95.24,1.3.35.35.11.67.27.95.48.28.21.54.52.77.93s.41.86.56,1.35.27.84.38,1.04c.11.2.27.31.47.31.26,0,.44-.18.53-.55.09-.37.13-.79.13-1.26h.24c0,.54-.03.96-.09,1.28-.06.32-.21.65-.46.99-.24.35-.59.62-1.04.84-.45.21-.94.32-1.47.32-.82,0-1.48-.26-1.97-.77-.49-.51-.8-1.18-.91-2.01-.12-.83-.21-1.53-.28-2.1-.11-.64-.26-1.01-.44-1.11-.18-.1-.38-.16-.59-.17-.21-.01-.43-.02-.64-.02ZM87.02,37.07c.39-.07.68-.37.88-.9.2-.54.3-1.13.3-1.79,0-.54-.1-1.07-.3-1.59-.2-.52-.45-.82-.73-.91-.28-.09-.54-.14-.76-.15-.22-.01-.42-.02-.59-.03v5.42h.52c.28,0,.52-.02.7-.05Z"/><path class="cls-4" d="M99.69,43.07c.43-.01.86-.02,1.31-.03.45,0,.92-.04,1.42-.11.5-.07,1.11-.61,1.84-1.63s1.27-2.06,1.61-3.13h.24v5.23h-11.96v-.26c.13,0,.28,0,.46-.02.17-.02.37-.04.59-.07.22-.03.39-.11.5-.25.12-.14.19-.38.22-.73l.03-.76v-7.79l-.03-.76c-.03-.35-.11-.6-.23-.74-.12-.14-.29-.23-.51-.26-.22-.03-.42-.05-.59-.06-.18,0-.34-.01-.48-.02v-.26h11.71v4.86h-.24c-.52-1.23-1.15-2.26-1.89-3.1-.74-.84-1.36-1.28-1.86-1.34-.5-.05-.93-.09-1.27-.1-.35-.01-.57-.02-.69-.02h-.14l-.03,5.39.64-.03c.59-.07,1.03-.36,1.33-.9.3-.53.45-1.16.45-1.88h.29v5.98h-.29c0-.73-.15-1.37-.45-1.92-.3-.55-.74-.85-1.33-.92l-.64-.03v5.65Z"/><path class="cls-4" d="M109.4,39.65l-.47,1.71c-.1.39-.15.71-.15.94,0,.25.06.43.17.53s.27.17.45.21c.18.04.36.06.53.07.17.01.34.02.5.03v.26h-4.31v-.26l.9-.07c.34-.04.59-.13.77-.27.17-.14.3-.31.39-.52s.18-.45.29-.74c.11-.28.2-.54.27-.77l2.91-9.4h1.67l3.21,9.4.47,1.28c.14.34.29.58.43.73.15.15.35.24.62.29l.62.07v.26h-7.23v-.26c.12,0,.23,0,.33,0,.1,0,.27-.03.53-.07.25-.04.44-.1.55-.17s.17-.22.17-.45-.07-.59-.21-1.04l-.55-1.74h-2.86ZM112.14,39.31l-1.34-4.04-1.29,4.04h2.63Z"/><path class="cls-4" d="M125.6,43.02c.61,0,1.21-.3,1.82-.9.6-.6,1.14-1.3,1.6-2.09.46-.79.88-1.62,1.26-2.5h.24v5.87h-11.9v-.26c.08,0,.2,0,.34,0,.15,0,.37-.03.67-.07.3-.04.51-.13.65-.27.13-.14.21-.38.24-.72l.03-.76v-7.81l-.03-.76c-.03-.35-.1-.59-.21-.73-.11-.14-.27-.22-.49-.25-.22-.03-.42-.05-.58-.06s-.31-.01-.44-.02v-.26h7.37v.26l-1,.05c-.3.03-.51.11-.62.25-.11.13-.18.38-.21.74l-.03.76v9.6l1.31-.05Z"/><path class="cls-4" d="M144.84,39.88c0,1.08-.42,1.98-1.27,2.67-.85.7-1.77,1.04-2.77,1.04-.87,0-1.74-.3-2.59-.9s-1.35-.9-1.48-.9c-.34,0-.54.14-.62.41-.08.27-.16.73-.23,1.38h-.26v-5.88h.26c.06.23.16.61.31,1.13.15.53.42,1.15.82,1.88.4.73.93,1.33,1.58,1.82s1.41.72,2.28.72c.5,0,.9-.14,1.22-.43.31-.28.47-.62.47-1.02,0-.47-.12-.84-.35-1.12-.23-.27-.65-.54-1.26-.8-.61-.26-1.25-.53-1.93-.83s-1.4-.7-2.16-1.2c-.76-.49-1.14-1.42-1.14-2.79,0-1.07.4-1.98,1.2-2.73.8-.74,1.72-1.12,2.77-1.12.58,0,1.14.15,1.69.44l1.58.95c.29,0,.49-.13.58-.4s.14-.6.14-.99h.29v4.35h-.27c-.05-.19-.15-.5-.31-.95-.16-.45-.46-.95-.91-1.51-.45-.56-.9-.96-1.34-1.21-.44-.25-.97-.37-1.59-.37-.42,0-.8.13-1.15.39-.35.26-.53.59-.53.99,0,.42.13.76.4,1.04.27.28.58.5.93.67.35.16.83.37,1.45.62.62.25,1.26.55,1.93.88.66.33,1.21.82,1.64,1.46.43.64.64,1.4.64,2.28Z"/><path class="cls-4" d="M147.86,39.65l-.47,1.71c-.1.39-.15.71-.15.94,0,.25.06.43.17.53s.27.17.45.21c.18.04.36.06.53.07.17.01.34.02.5.03v.26h-4.31v-.26l.9-.07c.34-.04.59-.13.77-.27.17-.14.3-.31.39-.52s.18-.45.29-.74c.11-.28.2-.54.27-.77l2.91-9.4h1.67l3.21,9.4.47,1.28c.14.34.29.58.43.73.15.15.35.24.62.29l.62.07v.26h-7.23v-.26c.12,0,.23,0,.33,0,.1,0,.27-.03.53-.07.25-.04.44-.1.55-.17s.17-.22.17-.45-.07-.59-.21-1.04l-.55-1.74h-2.86ZM150.6,39.31l-1.34-4.04-1.29,4.04h2.63Z"/><path class="cls-4" d="M164.62,43.4l-7.44-.02v-.26h.47c.21-.03.42-.06.62-.09.2-.03.36-.11.48-.25s.19-.38.22-.73l.03-.75v-7.78l-.03-.76c-.03-.35-.11-.6-.23-.74-.12-.14-.29-.23-.51-.26-.22-.03-.42-.05-.59-.06-.18,0-.34-.01-.48-.02v-.26l7.03-.02c.95,0,1.7.04,2.24.11s.99.25,1.35.51c.36.26.64.59.84.98s.3.85.3,1.39c0,.8-.22,1.38-.65,1.73-.43.35-.86.58-1.29.7-.43.11-.96.17-1.59.17v.13c.74,0,1.3.03,1.67.09.37.06.74.17,1.11.34s.7.47.98.93c.28.45.43,1.04.43,1.75s-.15,1.26-.44,1.72c-.29.46-.67.8-1.13,1.02s-1.02.35-1.67.39c-.66.03-1.23.05-1.72.05ZM164.08,36.89c.43-.09.71-.36.85-.81.14-.45.21-1.02.21-1.71,0-.56-.09-1.1-.28-1.62-.19-.52-.42-.82-.7-.9-.28-.08-.54-.12-.78-.13-.24-.01-.45-.02-.63-.03v5.31c.19,0,.39,0,.59,0,.2,0,.44-.04.74-.11ZM164.64,42.92c.34-.09.58-.43.72-1.03s.22-1.23.22-1.88c0-.59-.11-1.17-.34-1.73s-.51-.87-.83-.91c-.32-.04-.58-.07-.75-.07-.18,0-.31,0-.4,0h-.5v5.8h.18c.37,0,.67,0,.91-.02s.51-.06.79-.14Z"/><path class="cls-4" d="M183.27,37.42c0,1.75-.61,3.22-1.84,4.4-1.23,1.18-2.68,1.78-4.35,1.78s-3.2-.58-4.38-1.75c-1.17-1.17-1.76-2.64-1.76-4.43s.6-3.33,1.8-4.47c1.2-1.14,2.64-1.71,4.34-1.71s3.15.58,4.37,1.73c1.22,1.16,1.83,2.64,1.83,4.45ZM178.64,32.93c-.3-.92-.83-1.38-1.57-1.38-.38,0-.7.13-.97.39-.27.26-.48.64-.63,1.14-.15.5-.25,1.14-.32,1.92s-.1,1.59-.1,2.41c0,1.13.04,2.05.12,2.76s.23,1.41.46,2.09.71,1.02,1.45,1.02c.38,0,.7-.13.97-.39s.48-.64.63-1.14.25-1.14.32-1.92c.07-.78.1-1.59.1-2.41,0-.98-.03-1.82-.09-2.54-.06-.72-.18-1.37-.37-1.95Z"/><path class="cls-4" d="M189.95,37.42v3.85l.03.76c.03.35.11.6.24.76s.36.25.67.3l.78.07v.26h-7.31v-.26h.47c.22-.03.44-.06.64-.09.2-.03.36-.11.48-.25.12-.14.19-.38.22-.73l.03-.76v-7.79l-.03-.76c-.03-.35-.11-.6-.23-.74-.12-.14-.29-.23-.52-.26-.22-.03-.42-.05-.58-.06-.16,0-.31-.01-.46-.02v-.26l6.8-.02c.94,0,1.71.04,2.3.13.59.09,1.07.26,1.44.53.37.26.66.59.88.98.22.39.33.84.33,1.36,0,.38-.06.77-.19,1.15-.13.38-.32.71-.59.99s-.59.49-.98.64c-.39.15-1.01.23-1.86.23v.12c.52.12.95.24,1.3.35.35.11.67.27.95.48.28.21.54.52.77.93s.41.86.56,1.35.27.84.38,1.04c.11.2.27.31.47.31.26,0,.44-.18.53-.55.09-.37.13-.79.13-1.26h.24c0,.54-.03.96-.09,1.28-.06.32-.21.65-.46.99-.24.35-.59.62-1.04.84-.45.21-.94.32-1.47.32-.82,0-1.48-.26-1.97-.77-.49-.51-.8-1.18-.91-2.01-.12-.83-.21-1.53-.28-2.1-.11-.64-.26-1.01-.44-1.11-.18-.1-.38-.16-.59-.17-.21-.01-.43-.02-.64-.02ZM191.17,37.07c.39-.07.68-.37.88-.9.2-.54.3-1.13.3-1.79,0-.54-.1-1.07-.3-1.59-.2-.52-.45-.82-.73-.91-.28-.09-.54-.14-.76-.15-.22-.01-.42-.02-.59-.03v5.42h.52c.28,0,.52-.02.7-.05Z"/><path class="cls-1" d="M64.05,26.23c.63.17,1.22.18,1.87.19,1.18.01,2.28-.23,3.35-.67.85-.35,2.12-1.32,2.75-2.03l.57-.64c-.33,0-.65.05-.97,0-.66-.12-1.09-.65-1.13-1.3-.05-.78.33-1.36.78-1.94.82-1.04,2.5-2.49,3.68-3.16.3-.27.62-.49,1-.67.62-.29,1.17-.63,1.86-.88l-1.14,2.23-.37.76-.92,1.68-1.75,3.08-.57,1-1.09,1.98-1.36,2.45c-.35.64-.74,1.23-1.02,1.96l-2.61-.79c-2.32-.7-4.72-.94-7.09-1.39-.77-.15-1.48-.27-2.26-.35l-3.29-.35c-.44-.05-.84-.02-1.27-.06l-.92-.07-1.06-.06-1.47-.15c-.41-.04-.84-.05-1.25-.07l-1.23-.08h-13.13s-1.83.1-1.83.1l-1.35.07c-3.35.16-6.85-.12-9.98.96l-.44.15c.28-.1-4.9.73-6.87,1.38-.78.26-1.56.39-2.3.71l-.49-.89c-.23-.41-.44-.82-.67-1.24l-.82-1.47-.71-1.26c-.29-.52-.57-1-.87-1.53l-2.58-4.56-.6-1.1c-.24-.44-.41-.88-.66-1.32-.32-.58-.56-1.17-.84-1.77.84.36,1.99.91,2.6,1.35l1.8,1.28c.13.09.2.21.32.31.77.68.85.66,1.51,1.44l.39.46c.4.47.69,1.05.64,1.66-.05.67-.38,1.26-1.05,1.43-.38.09-.74-.03-1.15,0,.33.29.54.6.81.87.5.51,1.11.86,1.7,1.27,1.45,1.01,3.53,1.31,5.3,1.14,1.56-.15,2.85-.82,3.44-2.33.19-.14.43-.11.63-.21.18-.1.38-.19.56-.26.35-.14.47.06.69.23.73.57,1.67.73,2.58.82,1.04.1,2.95-.12,3.7-.78s1.51-1.11,2.59-1.03c.52.04,1.07.02,1.58.24.45.19.94.19,1.42.2,1.33.03,2.77-.38,3.9-1.03.78-.45,1.58-.81,2.28-1.38.24-.19.48-.35.73-.52.22-.15.42-.11.63.03l.77.5c.78.51,1.6.91,2.41,1.38.93.54,1.95.79,3.02.98.49.09,1,.03,1.51.03.9,0,.97-.61,3.33-.37.87.09,1.26.7,1.58.94.97.71,2.64.91,3.83.83,2.34-.16,2.67-1.05,2.93-1.09.31-.04.57.14.83.27.19.09.52.09.66.26.59,1.28,1.22,1.81,2.6,2.17ZM72.69,21.83c.36-.04.35-.68.88-1.13.17-.14.34-.21.29-.49-.09-.52.3-1.22.13-1.67-.38.88-.44,1.66-1.44,1.86.15.18.21.29.18.47-.06.3-.32.29-.33.52.14.05.25-.04.43-.05-.03.19-.15.33-.15.48ZM8.39,21.41c-.04-.29-.39-.29-.36-.66.01-.12.15-.19.24-.34-1.55-.24-.95-1.39-1.6-1.54.23.56.26,1.06.23,1.63.26.13.44.32.58.56l.51.86c.23-.07.06-.29.06-.46,0-.13.22-.05.34-.05Z"/><path class="cls-1" d="M50.6,38.65c-.78-.03-1.51-.09-2.29-.09h-15.29s-2.09.07-2.09.07l-1.26.07-1.12.06c-1.25.07-2.46.16-3.69.32-.27.03-.49.08-.77.09-.84.01-1.66.21-2.5.27-.38.03-.7.14-1.06.2l-1.35.22c-.17.03-.28.05-.44.07-1.67.21-3.29.62-4.94.98-.18.04-.3.15-.46.19l-2.23.68,1.17-1.75.56-1.21c.72-2.57.33-4.78-.87-7.12l2.48-.74c2.46-.73,5.08-.75,7.55-1.43l.55-.15,3.76-.43,1.9-.16,1.33-.08.78-.07c.55-.05,1.06-.09,1.62-.07.27.01.55-.1.84-.06.36.05.7-.04,1.05-.05l1.88-.04,9.56-.03c.28,0,.51.1.79.07.32-.04,2.45.09,2.95.11l1.2.06,1.12.08.92.06.98.08,2.18.23c1.1.12,2.17.19,3.22.41,1.4.29,2.71.39,4.17.69l3.14.64c.17.04.31.13.46.18.81.23,1.58.42,2.42.72-.24.41-.36.89-.58,1.33-.17.34-.24.69-.36,1.04-.19.59-.25,1.14-.3,1.75-.19,2.25.67,4.2,2.1,5.94l-2.82-.94-2.48-.54c-1.29-.28-2.54-.47-3.83-.67-.17-.02-.31-.14-.5-.16-.81-.04-1.6-.26-2.41-.25-.2,0-.34-.05-.54-.07l-3.39-.33-.85-.06-.99-.07-1.26-.05Z"/><path class="cls-1" d="M35.12,48.07l-2.65-.16-1.05-.07-.91-.07-1.05-.07-.84-.06-3.19-.37-2.73-.44c-2.18-.35-4.33-.78-6.43-1.49l-2.22-.74c-.54-.18-1.08-.4-1.57-.66l-1.07-.55c.9-.41,1.95-.57,2.82-.92.55-.22,1.1-.32,1.69-.43l3.7-.71c.44-.08.86-.15,1.3-.17.21,0,.37-.14.55-.16l3.53-.42,2.79-.26,1.19-.08.99-.06,1.55-.07,1.54-.07c.3-.01.6-.11.92-.05.27.05.52-.06.78-.06l3.44-.03,8.28.02c.34,0,.64.11.99.06.14-.02,3.38.17,3.79.2l.85.07.94.04,4.04.41c1.91.19,7.6,1.16,9.28,1.71l1.14.37c.58.19,1.13.39,1.77.59-.32.22-.61.34-.93.53-.82.49-1.76.71-2.66,1.04-.36.13-.73.19-1.07.34-.31.13-.57.22-.9.3-4.25,1.12-9.55,1.97-13.91,2.24l-.73.05-2.85.18-11.08.02Z"/><path class="cls-4" d="M30.23,49.81c-.32-.02-.57-.11-.84-.14l-2.06-.22c-2.42-.26-4.79-.56-7.14-1.16-1.88-.47-3.73-.81-5.54-1.48-1.28-.47-2.54-.85-3.75-1.45l-2.26-1.12c-.22-.11-.39-.26-.57-.4-.31-.24-.68-.37-.98-.69.74-.52,1.7-1.46,2.24-2.15,2.57-3.32,2.12-6.1.19-9.62l-.89-1.63-.9-1.63-.88-1.52-.8-1.37-2.47-4.39-.81-1.48c-1.16-2.12-2.21-4.04-2.76-6.45.9-.22,3.15.33,3.95.7.99.45,1.97.84,2.82,1.48.64.49,1.27.91,1.88,1.41l1.35,1.11c.17.14.29.32.44.47.42.42.82.8,1.15,1.3.76,1.16.91,2.57.36,3.84-.38.87,1.82,1.3,2.4,1.33s2.13-.11,2.19-.79c.05-.56-1.04-.42-1.4-1.82-.3-1.14.19-1.32-.36-1.65-.46-.27-.91-.55-1.24-.95-.39-.46-.79-.87-1.05-1.41-.31-.64-.58-1.22-.75-1.91-.44-1.78-.52-3.74.55-5.33s4.04-.9,5.49.07c.63.42,1.25.81,1.73,1.37.42.49.86.9,1.2,1.45.9,1.45,1.32,3.17.93,4.85-.08.36-.03.54.22.81.68.71.91,1.66.67,2.59-.1.37.12.69.45.8,2.02.72,4.18-.35,3.66-1.08s-.71-1.71-.41-2.6c.19-.58.72-.82.69-1.29-.02-.34-.85-.72-1.23-1.18s-.84-.86-1.13-1.39-.58-.99-.78-1.55c-.55-1.52-.66-2.91.15-4.35.34-.61.92-1.01,1.54-1.35,1.69-.92,5.03-.82,6.56-.03l2.13,1.1c.14.07.23.21.39.17.54-.13.38-.74.47-1.38.14-.97.47-1.85.86-2.74.24-.54.6-.97.89-1.48.31-.54.77-.95,1.16-1.44.44-.56,1.02-.95,1.53-1.43.27-.26.59-.4.94-.63.31.18.65.33.92.57l1.25,1.15c.14.13.23.29.35.43.39.44.79.85,1.1,1.35s.67.93.91,1.48c.45,1.02.84,2.03.92,3.17.02.29-.04.63.19.84.19.19.5.08.7-.06.63-.44,1.27-.74,1.96-1.08,1.72-.83,4.79-.91,6.54-.02.69.35,1.29.79,1.66,1.43.81,1.4.65,2.86.08,4.31-1.21,3.04-2.99,3.61-3.08,4.02-.1.47.44.7.65,1.26.34.9.15,1.89-.38,2.67s1.76,1.76,3.59,1.16c.45-.15.61-.49.5-.91-.22-.9.03-1.84.65-2.51.28-.31.29-.51.22-.89-.46-2.32.45-4.56,2.07-6.2.56-.56,1.11-.98,1.79-1.41,1.44-.92,4.36-1.71,5.48-.07,1.46,2.15.91,5.16-.25,7.33-.28.53-.65.91-1.04,1.36-.32.37-.73.65-1.16.89-.59.33.02.74-.56,2.05-.41.93-1.37.98-1.29,1.49.03.16.16.31.35.4,1.23.57,2.64.43,3.85-.17.22-.11.37-.27.43-.46.08-.24-.04-.43-.13-.65-.45-1.22-.15-2.51.54-3.6.32-.5.75-.86,1.15-1.32.49-.57,1.13-.95,1.68-1.47.58-.56,1.24-.93,1.88-1.42.83-.65,1.81-1.02,2.76-1.45.18-.08.29-.17.49-.23,1.16-.33,2.32-.63,3.55-.57-.11.8-.37,1.54-.65,2.28l-.57,1.47-2.38,4.29-4.88,8.61-1.04,1.92-.54,1.07c-1.17,2.34-1.49,4.71-.21,7.08.29.54.63.99.98,1.49s.86.9,1.3,1.35c.27.29.57.47.92.74l-1.11.76c-.84.58-1.8.92-2.72,1.41-1,.53-2.09.79-3.14,1.21l-.81.33c-1.74.7-3.57.97-5.41,1.41-2.88.69-5.85.77-8.76,1.34l-.58.11-3.73.28-2.79.1-1.2.05h-5.12s-2.47-.06-2.47-.06l-2.29-.1-3.33-.2ZM40.51,10.32c.6.11.89.91.93,1.36.12,1.19.02,2.36-.09,3.55-.01.13-.05.26.07.37.78-.73,1.24-1.66,1.59-2.67.33-.96.44-1.92.51-2.94.1-1.41-.07-2.82-.63-4.11-.47-1.09-1.46-2.85-2.5-3.51-.37.32-.79.64-1.05,1.06-.22.36-.55.63-.74,1-.3.56-.62,1.09-.84,1.69-.86,2.26-.74,5.33.23,7.55.08.19,1.1,2.11,1.46,1.84-.15-.29-.07-.59-.1-.9l-.09-.98c-.05-.55-.06-1.07,0-1.62.07-.73.42-1.84,1.25-1.68ZM29.84,12.81c.62-.83.83-1.06,1.92-1.38.73-.21,1.43-.13,2.22-.07l-.69-.73c-.59-.63-1.46-.91-2.26-1.23l-.47-.19c-.74-.3-2.84-.4-3.77.12-.5.28-.98.66-1.12,1.24-.41,1.79.79,3.88,2.07,5.03l.51.46c.27.25.65.3.91.6.06.07.17.04.23.03.05-.01.1-.12.09-.21-.13-.94-.19-2.92.37-3.68ZM51.37,16.7c.97-.55,1.57-.93,2.22-1.72.46-.56.6-.68.96-1.36.47-.89.73-1.86.6-2.87-.13-.96-1.33-1.66-2.12-1.73-.95-.08-1.97-.12-2.85.21l-.74.28c-1.02.39-1.94.94-2.59,1.85,1.17-.2,2.71-.08,3.52.73.68.58.94,1.37.99,2.24.02.38.06.77.02,1.17s-.13.8,0,1.19ZM17.46,15.72c.18.49.16,1.02.3,1.52.11.38,1.03.95,1.56.95.28-1.76.04-3.13-1.12-4.54-.25-.31-.47-.57-.8-.83l-.91-.7c-.59-.45-1.36-.52-2.12-.6-.23.31-.5.61-.6,1-.34,1.31-.19,2.67.3,3.92.24.61.61,1.09,1.03,1.58.2.23.94.78,1.2.59.06-.04-.02-.09-.03-.16-.13-.94-.77-1.91-.53-3.03.07-.33.29-.73.66-.74.56-.02.9.58,1.06,1.04ZM64.85,17.25c-.16.47-.33.9-.33,1.43.45-.1.88-.32,1.15-.66.43-.54.83-1.05,1.07-1.69.27-.72.42-1.42.48-2.18s-.17-2.15-.77-2.63c-.76.05-1.52.21-2.15.63-1.15.76-2.11,1.71-2.6,3-.46,1.2-.35,1.72-.33,3,.33.07.58-.12.83-.22,1.48-.57.42-1.88,1.56-3.02.21-.21.54-.31.8-.21.81.31.52,1.85.29,2.55ZM35.05,18.41l.05-.85c.02-.37.25-.72.4-1.04.19-.41.07-.68-.1-1.04-.35-.71-.76-1.35-1.38-1.87-.66-.55-1.85-.49-2.04-.15-.56.96-.28,2.26.2,3.22.25.51.71.82,1.14,1.16.49.4,1.09.73,1.74.57ZM48.72,16.44c.34-.83.51-1.69.31-2.56-.1-.43-.36-.67-.81-.67-.52,0-1.02.06-1.42.39-.64.53-1.04,1.17-1.4,1.9-.6,1.19.5.98.37,2.93,1.08.33,2.62-1.14,2.96-1.97ZM64.05,26.23c-1.38-.37-2.01-.89-2.6-2.17-.14-.18-.47-.17-.66-.26-.27-.13-.52-.31-.83-.27-.25.04-.58.93-2.93,1.09-1.2.08-2.86-.11-3.83-.83-.33-.24-.71-.85-1.58-.94-2.36-.23-2.44.37-3.33.37-.51,0-1.02.06-1.51-.03-1.07-.19-2.09-.44-3.02-.98-.82-.47-1.64-.88-2.41-1.38l-.77-.5c-.21-.13-.41-.18-.63-.03-.25.17-.49.33-.73.52-.69.56-1.49.93-2.28,1.38-1.13.65-2.57,1.06-3.9,1.03-.48-.01-.97,0-1.42-.2-.52-.22-1.06-.2-1.58-.24-1.08-.08-1.83.35-2.59,1.03s-2.66.88-3.7.78c-.9-.09-1.84-.24-2.58-.82-.22-.17-.33-.37-.69-.23-.17.07-.37.16-.56.26-.2.1-.44.07-.63.21-.59,1.5-1.87,2.17-3.44,2.33-1.77.17-3.85-.13-5.3-1.14-.59-.41-1.2-.75-1.7-1.27-.27-.28-.48-.58-.81-.87.41-.04.77.09,1.15,0,.67-.17.99-.76,1.05-1.43.05-.62-.24-1.19-.64-1.66l-.39-.46c-.66-.78-.75-.76-1.51-1.44-.11-.1-.18-.22-.32-.31l-1.8-1.28c-.61-.44-1.76-.99-2.6-1.35.28.6.52,1.2.84,1.77.25.44.41.88.66,1.32l.6,1.1,2.58,4.56c.3.52.57,1,.87,1.53l.71,1.26.82,1.47c.23.41.44.83.67,1.24l.49.89c.74-.32,1.53-.45,2.3-.71,1.97-.65,7.14-1.48,6.87-1.38l.44-.15c3.13-1.08,6.63-.8,9.98-.96l1.35-.07,1.83-.09h13.13s1.23.07,1.23.07c.42.03.84.03,1.25.07l1.47.15,1.06.06.92.07c.43.03.83,0,1.27.06l3.29.35c.78.08,1.5.2,2.26.35,2.37.45,4.77.69,7.09,1.39l2.61.79c.28-.73.66-1.32,1.02-1.96l1.36-2.45,1.09-1.98.57-1,1.75-3.08.92-1.68.37-.76,1.14-2.23c-.7.25-1.24.59-1.86.88-.37.17-.7.4-1,.67-1.18.67-2.86,2.11-3.68,3.16-.45.57-.83,1.16-.78,1.94.04.65.46,1.19,1.13,1.3.32.06.64.02.97,0l-.57.64c-.63.72-1.91,1.68-2.75,2.03-1.07.44-2.18.68-3.35.67-.64,0-1.24-.02-1.87-.19ZM40.01,19.87c1.06.05,1.78-.04,2.54-.76.39-.37.7-.88.53-1.45-.11-.38-.53-.56-.89-.7-1.47-.54-3.19-.49-4.46.5-.64,1.05,1.26,2.35,1.77,2.38l.5.02ZM30.39,21.1c.43-.19.68-.67.68-1.06,0-.43-.16-.91-.6-1.15-.4-.23-1.08-.21-1.53,0-.51.22-.7.84-.59,1.36.09.45.49.93,1.03.96.33.02.69.06,1.01-.09ZM50.99,21.21c.64.04,1.09-.17,1.38-.7.24-.44.17-1.09-.24-1.44-.59-.5-1.62-.44-2.06.02-.25.26-.32.61-.33.98-.01.32.12.45.26.67.23.36.51.45.99.48ZM18.02,22.36c.51.13,1.1.18,1.54-.08.38-.23.72-.53.81-.96.06-.27.09-.66-.02-.92-.51-1.18-2.21-1.17-2.85-.58-.32.29-.48.58-.47,1.02,0,.54.19,1.03.7,1.28.09.04.15.19.3.23ZM63.3,21.94c.52-.48.57-1.37.13-1.9-.46-.57-1.16-.68-1.82-.55-.71.13-1.24.63-1.27,1.35-.03.57.17,1.05.69,1.31.09.04.14.2.28.22.91.16,1.34.17,1.99-.43ZM50.6,38.65l1.26.05.99.07.85.06,3.39.33c.19.02.34.07.54.07.81,0,1.59.21,2.41.25.19.01.33.13.5.16,1.29.19,2.55.38,3.83.67l2.48.54,2.82.94c-1.43-1.74-2.29-3.69-2.1-5.94.05-.61.11-1.16.3-1.75.11-.36.19-.7.36-1.04.22-.44.33-.92.58-1.33-.85-.3-1.62-.5-2.42-.72-.16-.04-.29-.14-.46-.18l-3.14-.64c-1.46-.3-2.77-.4-4.17-.69-1.05-.22-2.13-.3-3.22-.41l-2.18-.23-.98-.08-.92-.06-1.12-.08-1.2-.06c-.5-.03-2.63-.15-2.95-.11-.28.03-.51-.07-.79-.07l-9.56.03-1.88.04c-.35,0-.69.1-1.05.05-.29-.04-.57.07-.84.06-.56-.02-1.07.02-1.62.07l-.78.07-1.33.08-1.9.16-3.76.43-.55.15c-2.46.68-5.09.7-7.55,1.43l-2.48.74c1.2,2.34,1.59,4.56.87,7.12l-.56,1.21-1.17,1.75,2.23-.68c.15-.05.28-.15.46-.19,1.65-.37,3.27-.78,4.94-.98.16-.02.28-.04.44-.07l1.35-.22c.37-.06.68-.18,1.06-.2.85-.06,1.67-.25,2.5-.27.28,0,.5-.05.77-.09,1.23-.16,2.44-.25,3.69-.32l1.12-.06,1.26-.07,2.09-.07h15.29c.78,0,1.51.07,2.29.09ZM35.12,48.07l11.08-.02,2.85-.18.73-.05c4.36-.27,9.66-1.12,13.91-2.24.33-.09.6-.17.9-.3.34-.14.71-.21,1.07-.34.9-.32,1.84-.55,2.66-1.04.32-.19.61-.3.93-.53-.64-.19-1.19-.4-1.77-.59l-1.14-.37c-1.69-.55-7.37-1.51-9.28-1.71l-4.04-.41-.94-.04-.85-.07c-.41-.03-3.65-.22-3.79-.2-.35.05-.65-.06-.99-.06l-8.28-.02-3.44.03c-.26,0-.51.1-.78.06-.31-.05-.61.04-.92.05l-1.54.07-1.55.07-.99.06-1.19.08-2.79.26-3.53.42c-.18.02-.34.15-.55.16-.44.02-.86.08-1.3.17l-3.7.71c-.59.11-1.14.21-1.69.43-.87.34-1.92.51-2.82.92l1.07.55c.49.25,1.03.48,1.57.66l2.22.74c2.09.7,4.25,1.14,6.43,1.49l2.73.44,3.19.37.84.06,1.05.07.91.07,1.05.07,2.65.16Z"/><path class="cls-1" d="M40.51,10.32c-.83-.16-1.17.95-1.25,1.68-.05.55-.05,1.07,0,1.62l.09.98c.03.31-.05.61.1.9-.36.27-1.38-1.65-1.46-1.84-.97-2.22-1.09-5.28-.23-7.55.23-.6.54-1.13.84-1.69.2-.37.52-.63.74-1,.26-.42.67-.74,1.05-1.06,1.05.66,2.03,2.43,2.5,3.51.56,1.29.74,2.7.63,4.11-.07,1.02-.18,1.99-.51,2.94-.35,1.01-.82,1.95-1.59,2.67-.12-.11-.08-.24-.07-.37.11-1.19.21-2.36.09-3.55-.04-.45-.33-1.24-.93-1.36Z"/><path class="cls-1" d="M29.84,12.81c-.57.76-.5,2.74-.37,3.68.01.08-.04.2-.09.21-.05.01-.17.04-.23-.03-.25-.3-.63-.35-.91-.6l-.51-.46c-1.28-1.15-2.48-3.24-2.07-5.03.13-.59.62-.97,1.12-1.24.93-.52,3.03-.42,3.77-.12l.47.19c.8.32,1.67.6,2.26,1.23l.69.73c-.78-.07-1.49-.14-2.22.07-1.09.31-1.3.55-1.92,1.38Z"/><path class="cls-1" d="M51.37,16.7c-.13-.39-.05-.79,0-1.19s0-.79-.02-1.17c-.05-.87-.31-1.66-.99-2.24-.8-.82-2.34-.94-3.52-.73.65-.92,1.58-1.46,2.59-1.85l.74-.28c.88-.34,1.9-.29,2.85-.21.79.07,1.99.76,2.12,1.73.14,1.02-.13,1.98-.6,2.87-.35.67-.5.8-.96,1.36-.65.79-1.25,1.17-2.22,1.72Z"/><path class="cls-1" d="M17.46,15.72c-.16-.46-.5-1.06-1.06-1.04-.37.01-.59.41-.66.74-.24,1.11.4,2.08.53,3.03.01.08.09.12.03.16-.25.19-1-.36-1.2-.59-.42-.49-.79-.97-1.03-1.58-.49-1.25-.64-2.61-.3-3.92.1-.39.37-.69.6-1,.76.08,1.53.15,2.12.6l.91.7c.34.26.55.52.8.83,1.15,1.41,1.39,2.78,1.12,4.54-.52,0-1.45-.56-1.56-.95-.14-.5-.13-1.03-.3-1.52Z"/><path class="cls-1" d="M64.85,17.25c.23-.7.52-2.23-.29-2.55-.26-.1-.59,0-.8.21-1.14,1.14-.08,2.45-1.56,3.02-.25.1-.5.29-.83.22-.02-1.28-.13-1.79.33-3,.49-1.29,1.45-2.25,2.6-3,.63-.41,1.39-.58,2.15-.63.6.48.82,1.9.77,2.63-.06.76-.21,1.46-.48,2.18-.24.64-.63,1.15-1.07,1.69-.27.34-.7.56-1.15.66,0-.53.17-.96.33-1.43Z"/><path class="cls-3" d="M35.05,18.41c-.65.16-1.25-.17-1.74-.57-.43-.35-.88-.66-1.14-1.16-.48-.96-.76-2.26-.2-3.22.2-.34,1.38-.4,2.04.15.62.52,1.03,1.16,1.38,1.87.18.36.3.63.1,1.04-.15.32-.38.67-.4,1.04l-.05.85Z"/><path class="cls-3" d="M48.72,16.44c-.34.83-1.87,2.3-2.96,1.97.13-1.95-.96-1.74-.37-2.93.36-.72.77-1.36,1.4-1.9.39-.33.9-.38,1.42-.39.45,0,.71.24.81.67.21.87.03,1.73-.31,2.56Z"/><path class="cls-1" d="M40.01,19.87l-.5-.02c-.52-.02-2.41-1.32-1.77-2.38,1.27-1,2.99-1.04,4.46-.5.37.14.78.31.89.7.16.56-.15,1.08-.53,1.45-.76.72-1.48.81-2.54.76Z"/><path class="cls-1" d="M18.02,22.36c-.15-.04-.21-.19-.3-.23-.51-.25-.69-.74-.7-1.28,0-.44.15-.72.47-1.02.65-.6,2.35-.6,2.85.58.11.26.08.65.02.92-.09.43-.42.73-.81.96-.44.26-1.04.21-1.54.08Z"/><path class="cls-1" d="M63.3,21.94c-.65.6-1.08.59-1.99.43-.14-.02-.19-.18-.28-.22-.52-.26-.72-.74-.69-1.31.04-.72.57-1.22,1.27-1.35.66-.12,1.36-.01,1.82.55.43.54.38,1.42-.13,1.9Z"/><path class="cls-1" d="M30.39,21.1c-.33.15-.68.1-1.01.09-.54-.02-.94-.5-1.03-.96-.1-.52.09-1.13.59-1.36.45-.2,1.13-.22,1.53,0,.44.25.61.72.6,1.15,0,.39-.26.87-.68,1.06Z"/><path class="cls-1" d="M50.99,21.21c-.48-.03-.75-.12-.99-.48-.14-.21-.28-.34-.26-.67.02-.36.08-.71.33-.98.44-.46,1.47-.52,2.06-.02.41.35.48,1,.24,1.44-.29.53-.73.74-1.38.7Z"/><path class="cls-4" d="M72.69,21.83c0-.15.11-.29.15-.48-.18,0-.29.09-.43.05.01-.23.28-.22.33-.52.03-.18-.03-.28-.18-.47,1-.2,1.06-.98,1.44-1.86.16.44-.22,1.14-.13,1.67.05.28-.12.35-.29.49-.53.45-.52,1.08-.88,1.13Z"/><path class="cls-4" d="M8.39,21.41c-.12,0-.34-.08-.34.05,0,.17.17.39-.06.46l-.51-.86c-.14-.24-.32-.43-.58-.56.03-.57,0-1.07-.23-1.63.65.14.05,1.3,1.6,1.54-.1.16-.23.22-.24.34-.04.37.31.37.36.66Z"/><path class="cls-2" d="M23.12,42.95c.2.19.29.47.29.84s-.1.65-.29.84-.47.29-.83.29-.63-.1-.83-.29c-.19-.19-.29-.47-.29-.84s.1-.65.29-.84c.19-.19.47-.29.83-.29s.63.1.83.29ZM21.96,43.32c-.07.09-.11.21-.11.37v.2c0,.15.04.28.11.37.07.09.18.14.33.14s.25-.05.33-.14c.08-.09.11-.21.11-.37v-.2c0-.15-.04-.28-.11-.37-.08-.09-.18-.14-.33-.14s-.25.05-.33.14Z"/><path class="cls-2" d="M25.34,44.88l-.74-2.18h.71l.42,1.46h.01l.42-1.46h.68l-.73,2.18h-.77Z"/><path class="cls-2" d="M27.12,42.7h1.8v.52h-1.13v.3h.97v.5h-.97v.33h1.15v.52h-1.82v-2.18Z"/><path class="cls-2" d="M31.17,43.73c-.07.11-.17.19-.3.24l.46.91h-.75l-.37-.8h-.25v.8h-.67v-2.18h1.27c.15,0,.28.03.38.09.11.06.19.14.24.24.05.1.08.21.08.33,0,.13-.03.25-.1.36ZM30.54,43.26s-.08-.06-.13-.06h-.44v.4h.44c.05,0,.1-.02.13-.06.04-.04.05-.09.05-.14s-.02-.1-.05-.14Z"/><path class="cls-2" d="M33.64,43.79c0,.73-.36,1.09-1.09,1.09h-.9v-2.18h.9c.73,0,1.09.36,1.09,1.09ZM32.32,44.36h.22c.28,0,.42-.16.42-.47v-.19c0-.31-.14-.47-.42-.47h-.22v1.13Z"/><path class="cls-2" d="M35.26,44.88l-.09-.31h-.73l-.09.31h-.68l.76-2.18h.78l.76,2.18h-.71ZM34.58,44.09h.45l-.22-.78h-.01l-.22.78Z"/><path class="cls-2" d="M38.2,43.79c0,.73-.36,1.09-1.09,1.09h-.9v-2.18h.9c.73,0,1.09.36,1.09,1.09ZM36.88,44.36h.22c.28,0,.42-.16.42-.47v-.19c0-.31-.14-.47-.42-.47h-.22v1.13Z"/><path class="cls-2" d="M38.56,42.7h1.8v.52h-1.13v.3h.97v.5h-.97v.33h1.15v.52h-1.82v-2.18Z"/><path class="cls-2" d="M40.77,44.88v-2.18h.67v2.18h-.67Z"/><path class="cls-2" d="M43.78,43.73c-.07.11-.17.19-.3.24l.46.91h-.75l-.37-.8h-.25v.8h-.67v-2.18h1.27c.15,0,.28.03.38.09.11.06.19.14.24.24.05.1.08.21.08.33,0,.13-.03.25-.1.36ZM43.15,43.26s-.08-.06-.13-.06h-.44v.4h.44c.05,0,.1-.02.13-.06.04-.04.05-.09.05-.14s-.02-.1-.05-.14Z"/><path class="cls-2" d="M46.07,42.95c.2.19.29.47.29.84s-.1.65-.29.84-.47.29-.83.29-.63-.1-.83-.29c-.19-.19-.29-.47-.29-.84s.1-.65.29-.84c.19-.19.47-.29.83-.29s.63.1.83.29ZM44.92,43.32c-.07.09-.11.21-.11.37v.2c0,.15.04.28.11.37.07.09.18.14.33.14s.25-.05.33-.14c.08-.09.11-.21.11-.37v-.2c0-.15-.04-.28-.11-.37-.08-.09-.18-.14-.33-.14s-.25.05-.33.14Z"/><path class="cls-2" d="M49.25,42.84c.17.11.26.28.26.5v.04h-.62c0-.08-.02-.13-.07-.17-.04-.04-.11-.06-.2-.06s-.16.01-.2.04c-.05.03-.07.06-.07.1,0,.06.03.1.1.13.06.03.17.06.31.09.17.04.3.07.41.11.11.04.2.1.28.19.08.09.12.21.12.36,0,.26-.08.45-.25.57-.17.12-.39.19-.67.19-.32,0-.58-.06-.76-.17s-.27-.32-.27-.61h.63c0,.11.03.18.08.22.05.04.14.06.25.06.08,0,.15,0,.21-.03.06-.02.08-.06.08-.12,0-.05-.03-.09-.09-.12-.06-.03-.16-.05-.3-.08-.17-.04-.31-.08-.42-.12-.11-.04-.21-.11-.29-.2-.08-.1-.12-.22-.12-.39,0-.24.09-.41.26-.53.18-.11.4-.17.67-.17s.48.06.65.17Z"/><path class="cls-2" d="M51.3,44.88l-.09-.31h-.73l-.09.31h-.68l.76-2.18h.78l.76,2.18h-.71ZM50.62,44.09h.45l-.22-.78h-.01l-.22.78Z"/><path class="cls-2" d="M53.92,42.77c.09.05.16.11.21.19s.08.17.08.28c0,.27-.12.44-.35.51h0c.26.08.4.26.4.56,0,.11-.03.21-.08.3-.05.09-.13.16-.22.2-.09.05-.19.07-.3.07h-1.4v-2.18h1.38c.1,0,.2.02.29.07ZM52.92,43.55h.46s.08-.02.11-.05c.03-.03.04-.07.04-.12v-.03s-.02-.09-.05-.12-.07-.05-.11-.05h-.46v.37ZM52.92,44.38h.51s.08-.02.11-.05c.03-.03.04-.07.04-.12v-.03s-.01-.09-.04-.12c-.03-.03-.07-.05-.11-.05h-.51v.37Z"/><path class="cls-2" d="M56.46,42.95c.2.19.29.47.29.84s-.1.65-.29.84-.47.29-.83.29-.63-.1-.83-.29c-.19-.19-.29-.47-.29-.84s.1-.65.29-.84c.19-.19.47-.29.83-.29s.63.1.83.29ZM55.31,43.32c-.07.09-.11.21-.11.37v.2c0,.15.04.28.11.37s.18.14.33.14.25-.05.33-.14.11-.21.11-.37v-.2c0-.15-.04-.28-.11-.37-.08-.09-.18-.14-.33-.14s-.25.05-.33.14Z"/><path class="cls-2" d="M58.98,43.73c-.07.11-.17.19-.3.24l.46.91h-.75l-.37-.8h-.25v.8h-.67v-2.18h1.27c.15,0,.28.03.38.09s.18.14.24.24c.05.1.08.21.08.33,0,.13-.03.25-.1.36ZM58.35,43.26s-.08-.06-.13-.06h-.44v.4h.44c.05,0,.1-.02.13-.06.04-.04.05-.09.05-.14s-.02-.1-.05-.14Z"/><path class="cls-2" d="M18.52,34.96l.27,2.12.5-.07.02.12-2.48.37-.02-.12.5-.07-.54-4.18-.5.07-.02-.12,2.3-.34c1.59-.24,2.38-.21,2.5.71.1.77-.36,1.07-1.16,1.25v.02c.84-.03,1.15.19,1.25.92l.04.33c.05.41.09.55.31.52.14-.02.25-.09.28-.6h.13c-.02.73-.21.95-.92,1.05-.96.14-1.28-.08-1.39-.97l-.06-.46c-.06-.45-.2-.67-.61-.6l-.4.06ZM18.5,34.83l.24-.03c.57-.08.82-.38.74-1.06l-.02-.18c-.09-.71-.41-.78-.95-.7l-.25.04.24,1.95Z"/><path class="cls-2" d="M25.89,31.88l.18,1.25h-.14c-.49-.78-.88-1.03-1.81-.94l-.27.03.17,1.96.26-.03c.5-.05.79-.43.88-.92h.12s.16,1.87.16,1.87h-.13c-.24-.6-.55-.82-1.09-.77l-.18.02.17,2.04.29-.03c.97-.1,1.6-.71,1.77-1.43h.15s.06,1.38.06,1.38l-4.21.41v-.14s.44-.04.44-.04l-.35-4.16-.45.04v-.14s3.98-.39,3.98-.39Z"/><path class="cls-2" d="M29.36,34.59l-1.52.07-.54,1.4.58-.03v.12s-1.17.06-1.17.06v-.12s.36-.02.36-.02l1.78-4.47.63-.03,2.12,4.28.35-.02v.12s-2.51.12-2.51.12v-.12s.54-.03.54-.03l-.62-1.35ZM27.84,34.05h1.39l-.67-1.67-.72,1.67Z"/><path class="cls-2" d="M34.72,31.4v.14s-.81.02-.81.02l.09,4.18h.28c.96-.03,1.37-.62,1.8-1.41h.16s-.11,1.49-.11,1.49l-4.08.11v-.14s.45-.01.45-.01l-.09-4.18h-.45s0-.13,0-.13l2.77-.07Z"/><path class="cls-2" d="M41.34,34.95c0-.53-.48-.7-1.43-.92-.93-.22-1.64-.52-1.64-1.49,0-.71.64-1.38,1.83-1.38.71,0,1.11.2,1.37.2.13,0,.17-.04.22-.13h.08l.05,1.29h-.12c-.39-.59-.92-1.22-1.71-1.22-.55,0-.94.27-.94.64,0,.47.52.63,1.3.8.86.19,1.8.43,1.8,1.49,0,.92-.76,1.52-1.89,1.52-.75,0-1.39-.19-1.61-.19-.12,0-.17.07-.23.19h-.11l-.08-1.52h.13c.39.64,1.13,1.38,1.98,1.38.46,0,.98-.2.98-.67Z"/><path class="cls-2" d="M44.89,34.3h-1.53l-.59,1.38h.58v.12h-1.18v-.12h.36l1.96-4.38h.63l1.94,4.38h.35v.12h-2.52v-.12h.55l-.56-1.38ZM43.43,34.16h1.39l-.67-1.67-.72,1.67Z"/><path class="cls-2" d="M50.16,31.47c1.35.06,2.13.36,2.1,1.15-.03.61-.5.91-1.31.98h0c.97.16,1.52.53,1.49,1.19-.04.99-1.05,1.2-2.5,1.13l-2.26-.11v-.12s.51.02.51.02l.17-4.22-.5-.02v-.12s2.31.11,2.31.11ZM49.77,33.55h.2c.55,0,.72-.29.72-.82v-.3c0-.61-.13-.85-.67-.85h-.25v1.96ZM49.77,35.81h.36c.59,0,.76-.37.76-.96v-.34c0-.52-.2-.84-.95-.84h-.18v2.14Z"/><path class="cls-2" d="M56.07,31.76c1.65.16,2.42,1.08,2.29,2.52s-1,2.22-2.77,2.05-2.46-1.07-2.34-2.46,1.11-2.27,2.82-2.11ZM56.8,33.94c.11-1.3.12-1.95-.8-2.04s-1.05.58-1.16,1.88l-.04.46c-.1,1.19-.07,1.89.83,1.98s1.02-.52,1.13-1.8l.04-.47Z"/><path class="cls-2" d="M60.97,34.73l-.3,2.11.5.08-.02.12-2.48-.41.02-.12.5.08.59-4.17-.5-.08.02-.12,2.3.38c1.59.26,2.33.52,2.2,1.44-.11.77-.63.92-1.44.84v.02c.81.22,1.05.53.95,1.26l-.05.33c-.06.41-.06.56.16.59.14.02.26,0,.43-.48l.13.03c-.22.7-.46.85-1.16.73-.96-.16-1.2-.47-1.08-1.36l.07-.46c.06-.45,0-.7-.42-.77l-.4-.07ZM60.81,34.68h.25c.57,0,.86-.26.86-.95v-.18c0-.71-.32-.83-.86-.83h-.25v1.96Z"/></svg>